<svg height="512" viewBox="0 0 512 512" width="512" xmlns="http://www.w3.org/2000/svg"><circle cx="159.996" cy="161.297" r="32"/><path d="m154.414 209.305-18.422 12.281v75.719h48v-75.719l-18.422-12.281z"/><path d="m354.414 208.008-18.883 12.586-14.601 131.414h78.125l-14.602-131.414-18.883-12.586z"/><circle cx="359.996" cy="160" r="32"/><path d="m255.992 32c-123.515 0-224 100.484-224 224s100.485 224 224 224 224-100.484 224-224-100.484-224-224-224zm-39.43 268.273-16.57-41.425v46.457a8 8 0 0 1 -8 8h-8v112h-16v-112h-16v112h-16v-112h-8a8 8 0 0 1 -8-8v-46.457l-16.57 41.425-14.86-5.937 32-80 .056.022a7.949 7.949 0 0 1 2.937-3.71l12.089-8.059a47.864 47.864 0 0 1 -3.534-80.289 75.64 75.64 0 0 1 -18.21-12.441 8 8 0 0 1 10.9-11.718 60.171 60.171 0 0 0 32.136 15.311c1.017-.065 2.026-.155 3.059-.155a47.954 47.954 0 0 1 24.348 89.294l12.086 8.057a7.953 7.953 0 0 1 2.936 3.71l.056-.022 32 80zm47.43 123.727h-16v-320h16zm168-224a8.169 8.169 0 0 1 -2.527-.406 58.707 58.707 0 0 1 -26.531-18.265 48.239 48.239 0 0 1 -18.59 19.965l12.086 8.058a7.853 7.853 0 0 1 2.824 3.754l.168-.067 32 80-14.86 5.938-10.113-25.285 9.492 85.433a8 8 0 0 1 -7.949 8.883h-24v56h-16v-56h-16v56h-16v-56h-24a8 8 0 0 1 -7.949-8.883l9.493-85.433-10.114 25.285-14.86-5.938 32-80 .168.067a7.849 7.849 0 0 1 2.825-3.754l12.089-8.06a48.244 48.244 0 0 1 -18.588-19.969 58.706 58.706 0 0 1 -26.536 18.271 8.175 8.175 0 0 1 -2.528.406 8 8 0 0 1 -2.527-15.594 42.742 42.742 0 0 0 26.618-26.134 47.942 47.942 0 0 1 95.827.023 42.74 42.74 0 0 0 26.61 26.111 8 8 0 0 1 -2.528 15.594z"/></svg>